<svg width="80" height="80" viewBox="0 0 80 80" fill="none" xmlns="http://www.w3.org/2000/svg">
<g clip-path="url(#clip0_843_1329)">
<path d="M4.09345 6.90199e-06C5.78119 -0.118086 6.84403 1.06284 7.94623 2.16997L36.1065 30.3598L76.455 70.7083L77.1488 71.4021C79.6829 73.9755 80.0372 76.1701 78.2215 78.0153C76.4058 79.8605 73.9898 79.5357 71.6575 76.9623C70.0632 75.2007 68.4591 74.9104 66.0874 75.058C50.5385 76.0175 34.9699 75.9093 19.4111 75.2794C16.7983 75.1712 14.1707 75.4369 11.5678 74.876C5.39247 73.5474 1.69714 69.8718 0.742554 63.6965C-0.300602 57.1029 0.107804 50.4504 0.2505 43.8175C0.284943 41.9378 1.06731 40.1566 1.77095 38.4049C4.45757 31.7178 7.08514 25.0013 9.84064 18.3389C10.5443 16.6462 10.3327 15.4997 8.98939 14.245C6.36182 11.7847 3.8425 9.19159 1.35762 6.57386C0.152089 5.37324 -0.305522 3.90692 0.491606 2.27822C0.78913 1.5773 1.29327 0.983746 1.9368 0.576707C2.58032 0.169668 3.33265 -0.0315082 4.09345 6.90199e-06ZM41.6667 47.3799C41.4037 46.9753 41.1178 46.586 40.8106 46.2138C33.228 38.6214 25.6258 31.0536 18.0776 23.4267C16.9016 22.2409 16.3702 22.2901 15.765 23.8794C14.0674 28.3079 12.2616 32.702 10.5 37.1108C9.3043 40.1025 9.31415 40.2648 12.5814 40.0631C18.9338 39.694 24.6564 40.7274 28.7847 46.1793C29.0906 46.5707 29.4854 46.8833 29.9365 47.0913C30.3875 47.2993 30.8817 47.3965 31.3779 47.375C34.6451 47.3701 37.9124 47.3799 41.6667 47.3799Z" fill="#AAAAAA"/>
<path d="M39.9546 3.5083C45.5148 3.8183 51.0996 3.08513 56.6402 4.02988C60.6553 4.71383 63.7946 6.69189 65.9597 10.1953C67.3964 12.6785 68.6195 15.2794 69.6156 17.9698C71.8397 23.4414 73.6554 29.0902 76.2682 34.37C80.0029 41.9624 79.7569 49.8992 79.319 57.9345C79.2206 59.7305 79.0779 61.5314 78.8564 63.3126C78.635 65.0939 77.9068 65.1923 76.7012 63.9424C74.5952 61.7626 72.4253 59.6419 70.3045 57.4965C65.7514 52.9762 61.2228 48.4509 56.7189 43.9207C55.0853 42.2724 55.2427 41.6967 57.4127 40.934C60.5225 39.8564 63.7208 40.127 66.9192 40.1073C70.1175 40.0876 70.1471 40.0188 69.0006 37.155C66.3287 30.5516 63.524 23.9975 61.0145 17.3203C59.4055 13.005 56.5024 11.1942 52.0395 11.2483C43.271 11.3517 34.5026 11.327 25.7391 11.4107C25.2943 11.4498 24.8462 11.3912 24.4264 11.2391C24.0065 11.087 23.6249 10.8449 23.3084 10.5299C22.5063 9.70819 21.6403 8.9455 20.8826 8.06965C20.2035 7.29712 18.7766 6.70666 19.1308 5.60937C19.5392 4.35956 21.0991 4.30543 22.2701 4.08893C28.1502 3.05561 34.0696 3.79861 39.9546 3.5083Z" fill="#AAAAAA"/>
</g>
<defs>
<clipPath id="clip0_843_1329">
<rect width="79.5406" height="79.1667" fill="white"/>
</clipPath>
</defs>
</svg>
