<svg width="21" height="21" viewBox="0 0 21 21" fill="none" xmlns="http://www.w3.org/2000/svg">
<path d="M10.25 0C12.4677 0 14.2065 -0.00146305 15.5615 0.180664C16.9382 0.365751 18.0305 0.75313 18.8887 1.61133C19.7469 2.46953 20.1342 3.56182 20.3193 4.93848C20.5015 6.2935 20.5 8.03227 20.5 10.25C20.5 12.4677 20.5015 14.2065 20.3193 15.5615C20.1342 16.9382 19.7469 18.0305 18.8887 18.8887C18.0305 19.7469 16.9382 20.1342 15.5615 20.3193C14.2065 20.5015 12.4677 20.5 10.25 20.5C8.03227 20.5 6.2935 20.5015 4.93848 20.3193C3.56182 20.1342 2.46953 19.7469 1.61133 18.8887C0.75313 18.0305 0.365751 16.9382 0.180664 15.5615C-0.00146305 14.2065 0 12.4677 0 10.25C-1.57285e-10 8.03227 -0.00146303 6.2935 0.180664 4.93848C0.365751 3.56182 0.75313 2.46953 1.61133 1.61133C2.46953 0.75313 3.56182 0.365751 4.93848 0.180664C6.2935 -0.00146303 8.03227 -1.57288e-10 10.25 0ZM9.5918 6.27734C9.12832 6.06274 8.59992 5.90124 8.04883 6.07129C7.68467 6.18367 7.36102 6.39416 7.10547 6.6748C6.73358 7.08337 6.61113 7.61767 6.55566 8.15137C6.49945 8.6923 6.5 9.3938 6.5 10.25C6.5 11.1062 6.49945 11.8077 6.55566 12.3486C6.61113 12.8823 6.73358 13.4166 7.10547 13.8252C7.36102 14.1058 7.68467 14.3163 8.04883 14.4287C8.59992 14.5988 9.12832 14.4373 9.5918 14.2227C10.0585 14.0065 10.6238 13.6558 11.2988 13.2383C11.9983 12.8056 12.5811 12.4463 13.001 12.1123C13.4247 11.7752 13.7973 11.3765 13.9316 10.8213C14.0222 10.4468 14.0222 10.0532 13.9316 9.67871C13.7973 9.12352 13.4247 8.72479 13.001 8.3877C12.5811 8.05373 11.9983 7.69444 11.2988 7.26172C10.6238 6.84415 10.0585 6.49349 9.5918 6.27734Z" fill="#FBFCFF"/>
</svg>
